<svg width="99" height="99" viewBox="0 0 99 99" fill="none" xmlns="http://www.w3.org/2000/svg">
<g clip-path="url(#clip0_708_838)">
<path d="M40.4262 40.66C36.8052 40.66 33.2656 39.5859 30.2552 37.5736C27.2449 35.5614 24.8991 32.7014 23.5146 29.3555C22.1302 26.0096 21.7693 22.3283 22.4777 18.7773C23.1861 15.2263 24.9319 11.9652 27.4942 9.40668C30.0565 6.84815 33.3202 5.10718 36.8722 4.40405C40.4243 3.70092 44.1051 4.06722 47.4489 5.45662C50.7927 6.84602 53.6492 9.19607 55.657 12.2094C57.6648 15.2227 58.7337 18.7639 58.7283 22.3849C58.714 27.232 56.7803 31.8762 53.3503 35.3011C49.9203 38.726 45.2733 40.6529 40.4262 40.66ZM40.4262 9.49759C37.8773 9.49759 35.3857 10.2534 33.2664 11.6695C31.1471 13.0856 29.4953 15.0983 28.5198 17.4531C27.5444 19.808 27.2892 22.3992 27.7865 24.8991C28.2837 27.399 29.5111 29.6953 31.3135 31.4976C33.1158 33.2999 35.4121 34.5273 37.912 35.0246C40.4119 35.5219 43.0031 35.2666 45.3579 34.2912C47.7128 33.3158 49.7255 31.664 51.1416 29.5447C52.5577 27.4254 53.3135 24.9338 53.3135 22.3849C53.3135 18.967 51.9557 15.689 49.5389 13.2722C47.122 10.8554 43.8441 9.49759 40.4262 9.49759Z" fill="black"/>
<path d="M45.1372 86.335C44.5455 85.7431 44.089 85.03 43.7993 84.2448C43.5095 83.4596 43.3933 82.6209 43.4586 81.7865H11.511V66.1376C15.3488 62.0401 20.0049 58.7947 25.1773 56.6119C30.3498 54.4291 35.9232 53.3576 41.5363 53.4669H43.4857C43.3614 52.5592 43.4482 51.635 43.7393 50.7663C44.0305 49.8976 44.5181 49.1077 45.1643 48.4582L45.4892 48.1604C44.2167 48.1604 42.7817 47.9979 41.5363 47.9979C34.9313 47.8411 28.374 49.154 22.3385 51.8416C16.303 54.5293 10.9401 58.5245 6.63768 63.5385C6.28619 64.0072 6.09619 64.5772 6.09619 65.163V81.7865C6.09619 83.2226 6.66668 84.5999 7.68216 85.6154C8.69764 86.6309 10.0749 87.2014 11.511 87.2014H45.8953L45.1372 86.335Z" fill="black"/>
<path d="M91.8666 63.7015L86.4518 62.05C86.0649 60.7255 85.5385 59.4458 84.8815 58.2325L87.5889 53.1967C87.6769 52.9953 87.6982 52.7709 87.6495 52.5566C87.6007 52.3422 87.4846 52.149 87.3181 52.0055L83.3924 48.0797C83.2439 47.919 83.0457 47.8129 82.8296 47.7785C82.6135 47.7441 82.3921 47.7835 82.2011 47.8902L77.2195 50.5976C75.9942 49.905 74.6957 49.3511 73.3478 48.9461L71.6963 43.5312C71.6262 43.3319 71.4933 43.1608 71.3175 43.0436C71.1417 42.9264 70.9326 42.8695 70.7216 42.8814H65.1714C64.9582 42.879 64.7501 42.9465 64.5789 43.0736C64.4078 43.2008 64.283 43.3805 64.2238 43.5854L62.5723 49.0002C61.2163 49.3947 59.9086 49.9396 58.6736 50.6247L53.7461 47.9172C53.5592 47.8126 53.3424 47.7744 53.1309 47.8088C52.9195 47.8432 52.726 47.9482 52.5819 48.1068L48.5749 52.0055C48.4264 52.1619 48.3308 52.3611 48.3016 52.5749C48.2724 52.7887 48.3112 53.0062 48.4125 53.1967L51.1199 58.1242C50.4045 59.3449 49.8321 60.644 49.4142 61.9958L43.9994 63.6203C43.7946 63.6795 43.6148 63.8042 43.4877 63.9754C43.3605 64.1466 43.293 64.3547 43.2955 64.5679V70.1181C43.3115 70.3137 43.3878 70.4994 43.5139 70.6498C43.64 70.8001 43.8096 70.9076 43.9994 70.9574L49.4142 72.6089C49.8144 73.937 50.3591 75.2172 51.0387 76.4264L48.3313 81.5976C48.228 81.7828 48.1879 81.9968 48.2173 82.2069C48.2466 82.417 48.3436 82.6118 48.4937 82.7618L52.4195 86.6875C52.5728 86.8405 52.7705 86.9411 52.9844 86.9752C53.1983 87.0092 53.4175 86.9748 53.6107 86.877L58.6736 84.1696C59.8777 84.8193 61.1485 85.3368 62.464 85.7128L64.0885 91.1277C64.1551 91.3281 64.2817 91.5031 64.4513 91.6291C64.6208 91.755 64.825 91.8257 65.0361 91.8316H70.5863C70.7984 91.8297 71.0045 91.7606 71.1748 91.634C71.3451 91.5075 71.4708 91.3302 71.5339 91.1277L73.1854 85.5775C74.4823 85.1977 75.7348 84.6804 76.9216 84.0342L82.0387 86.7417C82.2268 86.8416 82.4424 86.8772 82.6527 86.843C82.8629 86.8088 83.0562 86.7066 83.2029 86.5521L87.3181 82.87C87.4288 82.7112 87.4881 82.5222 87.4881 82.3286C87.4881 82.1349 87.4288 81.946 87.3181 81.7871L84.6107 76.6971C85.268 75.5028 85.7945 74.2411 86.181 72.9338L91.5959 71.2823C91.8007 71.2231 91.9804 71.0983 92.1076 70.9272C92.2347 70.756 92.3023 70.5479 92.2998 70.3347V64.6491C92.3246 64.4664 92.2971 64.2803 92.2204 64.1126C92.1438 63.9448 92.0211 63.8023 91.8666 63.7015ZM67.9601 76.3722C66.1693 76.3776 64.4172 75.8511 62.926 74.8595C61.4348 73.868 60.2716 72.456 59.5838 70.8025C58.896 69.149 58.7146 67.3286 59.0627 65.572C59.4107 63.8153 60.2725 62.2016 61.5388 60.9353C62.8051 59.669 64.4189 58.8072 66.1755 58.4591C67.9322 58.1111 69.7526 58.2925 71.4061 58.9802C73.0595 59.668 74.4715 60.8312 75.4631 62.3225C76.4547 63.8137 76.9811 65.5657 76.9758 67.3565C76.9686 69.7454 76.0165 72.0345 74.3273 73.7237C72.638 75.4129 70.349 76.3651 67.9601 76.3722Z" fill="black"/>
</g>
<defs>
<clipPath id="clip0_708_838">
<rect width="97.4671" height="97.4671" fill="white" transform="translate(0.681396 0.562988)"/>
</clipPath>
</defs>
</svg>
