<svg width="130" height="131" viewBox="0 0 130 131" fill="none" xmlns="http://www.w3.org/2000/svg">
<path d="M108.297 92.371C111.169 92.371 113.924 91.2301 115.955 89.1991C117.986 87.1681 119.127 84.4136 119.127 81.5414V21.9781C119.127 19.1059 117.986 16.3513 115.955 14.3204C113.924 12.2894 111.169 11.1484 108.297 11.1484H51.2244C53.1196 14.4515 54.1485 18.1877 54.1485 21.9781H108.297V81.5414H59.5633V92.371M81.2227 38.2226V49.0523H48.7336V119.445H37.9039V86.9562H27.0743V119.445H16.2446V76.1265H8.12231V49.0523C8.12231 46.1801 9.2633 43.4255 11.2943 41.3946C13.3252 39.3636 16.0798 38.2226 18.952 38.2226H81.2227ZM43.3188 21.9781C43.3188 24.8503 42.1778 27.6049 40.1468 29.6359C38.1159 31.6668 35.3613 32.8078 32.4891 32.8078C29.6169 32.8078 26.8623 31.6668 24.8314 29.6359C22.8004 27.6049 21.6594 24.8503 21.6594 21.9781C21.6594 19.1059 22.8004 16.3513 24.8314 14.3204C26.8623 12.2894 29.6169 11.1484 32.4891 11.1484C35.3613 11.1484 38.1159 12.2894 40.1468 14.3204C42.1778 16.3513 43.3188 19.1059 43.3188 21.9781Z" fill="black"/>
</svg>
