<svg width="130" height="131" viewBox="0 0 130 131" fill="none" xmlns="http://www.w3.org/2000/svg">
<g clip-path="url(#clip0_708_832)">
<path d="M124.541 11.1484H5.41484C3.97874 11.1484 2.60145 11.7189 1.58597 12.7344C0.570491 13.7499 0 15.1272 0 16.5633L0 114.03C0 115.467 0.570491 116.844 1.58597 117.859C2.60145 118.875 3.97874 119.445 5.41484 119.445H124.541C125.977 119.445 127.355 118.875 128.37 117.859C129.386 116.844 129.956 115.467 129.956 114.03V16.5633C129.956 15.1272 129.386 13.7499 128.37 12.7344C127.355 11.7189 125.977 11.1484 124.541 11.1484ZM119.126 108.616H108.297V103.201H81.2226V108.616H10.8297V21.9781H119.126V108.616ZM55.7187 52.8969C55.7187 50.4411 56.6943 48.086 58.4307 46.3495C60.1672 44.613 62.5223 43.6375 64.9781 43.6375C70.1222 43.6375 74.2375 47.8069 74.2375 52.8969C74.2375 58.041 70.1222 62.2104 64.9781 62.2104C59.834 62.2104 55.7187 58.041 55.7187 52.8969ZM30.9187 61.4523C30.9187 57.6078 34.0593 54.4672 37.9039 54.4672C39.7565 54.4672 41.5332 55.2031 42.8431 56.5131C44.1531 57.823 44.889 59.5997 44.889 61.4523C44.889 65.2968 41.7484 68.3833 37.9039 68.3833C34.0593 68.3833 30.9187 65.2968 30.9187 61.4523ZM85.0671 61.4523C85.0671 59.5997 85.8031 57.823 87.113 56.5131C88.423 55.2031 90.1997 54.4672 92.0523 54.4672C93.9049 54.4672 95.6816 55.2031 96.9915 56.5131C98.3015 57.823 99.0374 59.5997 99.0374 61.4523C99.0374 65.2968 95.8968 68.3833 92.0523 68.3833C88.2078 68.3833 85.0671 65.2968 85.0671 61.4523ZM108.297 82.2994V86.9562H21.6594V82.2994C21.6594 77.2095 30.0524 73.0401 37.9039 73.0401C40.882 73.0401 43.9144 73.6357 46.5676 74.6645C50.6288 70.9283 57.9388 68.3833 64.9781 68.3833C72.0174 68.3833 79.3274 70.9283 83.3885 74.6645C86.0418 73.6357 89.0741 73.0401 92.0523 73.0401C99.9038 73.0401 108.297 77.2095 108.297 82.2994Z" fill="black"/>
</g>
<defs>
<clipPath id="clip0_708_832">
<rect width="129.956" height="129.956" fill="white" transform="translate(0 0.318848)"/>
</clipPath>
</defs>
</svg>
