<svg width="87" height="88" viewBox="0 0 87 88" fill="none" xmlns="http://www.w3.org/2000/svg">
<path d="M76.664 19.6537L44.175 8.82401C43.6192 8.63874 43.0183 8.63874 42.4626 8.82401L9.97351 19.6537C9.43441 19.8334 8.96553 20.1782 8.63328 20.6392C8.30104 21.1002 8.12227 21.6541 8.12231 22.2224V49.2966C8.12231 50.0146 8.40756 50.7033 8.9153 51.211C9.42304 51.7187 10.1117 52.004 10.8297 52.004C11.5478 52.004 12.2364 51.7187 12.7442 51.211C13.2519 50.7033 13.5372 50.0146 13.5372 49.2966V25.9789L24.9049 29.7659C21.8847 34.6454 20.9242 40.524 22.2345 46.111C23.5448 51.6979 27.0187 56.5366 31.8935 59.5645C25.8018 61.9538 20.5358 66.2755 16.6845 72.1844C16.4842 72.4821 16.3451 72.8167 16.2752 73.1686C16.2054 73.5205 16.2062 73.8828 16.2775 74.2345C16.3489 74.5861 16.4895 74.92 16.6911 75.2168C16.8927 75.5137 17.1512 75.7675 17.4518 75.9635C17.7523 76.1595 18.0888 76.2938 18.4417 76.3587C18.7946 76.4235 19.1568 76.4175 19.5074 76.3411C19.858 76.2647 20.1899 76.1194 20.4838 75.9136C20.7777 75.7078 21.0278 75.4456 21.2195 75.1423C26.3196 67.3178 34.3741 62.8337 43.3188 62.8337C52.2634 62.8337 60.318 67.3178 65.4181 75.1423C65.8152 75.7325 66.4286 76.1427 67.1257 76.2842C67.8229 76.4257 68.5477 76.2872 69.1435 75.8986C69.7393 75.51 70.1582 74.9025 70.3097 74.2075C70.4612 73.5125 70.3331 72.7857 69.953 72.1844C66.1017 66.2755 60.8155 61.9538 54.7441 59.5645C59.6142 56.5367 63.0848 51.7012 64.3948 46.1183C65.7049 40.5354 64.7475 34.6609 61.7326 29.7828L76.664 24.8079C77.2033 24.6283 77.6723 24.2836 78.0046 23.8226C78.337 23.3615 78.5158 22.8076 78.5158 22.2393C78.5158 21.6709 78.337 21.117 78.0046 20.656C77.6723 20.195 77.2033 19.8502 76.664 19.6706V19.6537ZM59.5633 41.1743C59.564 43.7425 58.9558 46.2742 57.7886 48.5618C56.6214 50.8495 54.9285 52.8277 52.8487 54.3344C50.7689 55.841 48.3615 56.833 45.824 57.2291C43.2866 57.6252 40.6914 57.414 38.2513 56.6128C35.8113 55.8117 33.596 54.4434 31.7872 52.6203C29.9783 50.7973 28.6275 48.5713 27.8456 46.125C27.0636 43.6788 26.8728 41.082 27.2888 38.5478C27.7047 36.0135 28.7156 33.614 30.2386 31.546L42.4626 35.6072C43.0183 35.7924 43.6192 35.7924 44.175 35.6072L56.399 31.546C58.4557 34.3348 59.5647 37.7092 59.5633 41.1743Z" fill="black"/>
</svg>
